<svg width="250" height="30" viewBox="0 0 195 30" fill="none" xmlns="http://www.w3.org/2000/svg">
<path d="M6.08807 28V29H6.79965L7.03285 28.3277L6.08807 28ZM8.49148 21.071V20.071H7.77989L7.5467 20.7433L8.49148 21.071ZM18.7188 21.071L19.6641 20.7449L19.4316 20.071H18.7188V21.071ZM21.1094 28L20.1641 28.3262L20.3965 29H21.1094V28ZM25.3026 28V29H26.7252L26.2435 27.6614L25.3026 28ZM15.8807 1.81818L16.8216 1.47958L16.5836 0.818181H15.8807V1.81818ZM11.3168 1.81818V0.818181H10.6138L10.3758 1.47958L11.3168 1.81818ZM1.89489 28L0.953958 27.6614L0.472243 29H1.89489V28ZM9.64205 17.7472L8.69688 17.4206L8.23849 18.7472H9.64205V17.7472ZM13.5028 6.57386V5.57386H12.7904L12.5577 6.24727L13.5028 6.57386ZM13.7074 6.57386L14.6526 6.24727L14.4199 5.57386H13.7074V6.57386ZM17.5682 17.7472V18.7472H18.9717L18.5133 17.4206L17.5682 17.7472ZM7.03285 28.3277L9.43626 21.3987L7.5467 20.7433L5.14329 27.6723L7.03285 28.3277ZM8.49148 22.071H18.7188V20.071H8.49148V22.071ZM17.7734 21.3972L20.1641 28.3262L22.0547 27.6738L19.6641 20.7449L17.7734 21.3972ZM21.1094 29H25.3026V27H21.1094V29ZM26.2435 27.6614L16.8216 1.47958L14.9398 2.15679L24.3616 28.3386L26.2435 27.6614ZM15.8807 0.818181H11.3168V2.81818H15.8807V0.818181ZM10.3758 1.47958L0.953958 27.6614L2.83581 28.3386L12.2577 2.15679L10.3758 1.47958ZM1.89489 29H6.08807V27H1.89489V29ZM10.5872 18.0737L14.448 6.90045L12.5577 6.24727L8.69688 17.4206L10.5872 18.0737ZM13.5028 7.57386H13.7074V5.57386H13.5028V7.57386ZM12.7622 6.90045L16.623 18.0737L18.5133 17.4206L14.6526 6.24727L12.7622 6.90045ZM17.5682 16.7472H9.64205V18.7472H17.5682V16.7472ZM29.0835 28H28.0835V29H29.0835V28ZM44.8974 28V29H45.8974V28H44.8974ZM44.8974 24.5994H45.8974V23.5994H44.8974V24.5994ZM33.0337 24.5994H32.0337V25.5994H33.0337V24.5994ZM33.0337 1.81818H34.0337V0.818181H33.0337V1.81818ZM29.0835 1.81818V0.818181H28.0835V1.81818H29.0835ZM29.0835 29H44.8974V27H29.0835V29ZM45.8974 28V24.5994H43.8974V28H45.8974ZM44.8974 23.5994H33.0337V25.5994H44.8974V23.5994ZM34.0337 24.5994V1.81818H32.0337V24.5994H34.0337ZM33.0337 0.818181H29.0835V2.81818H33.0337V0.818181ZM28.0835 1.81818V28H30.0835V1.81818H28.0835ZM49.4038 28H48.4038V29H49.4038V28ZM65.2177 28V29H66.2177V28H65.2177ZM65.2177 24.5994H66.2177V23.5994H65.2177V24.5994ZM53.354 24.5994H52.354V25.5994H53.354V24.5994ZM53.354 1.81818H54.354V0.818181H53.354V1.81818ZM49.4038 1.81818V0.818181H48.4038V1.81818H49.4038ZM49.4038 29H65.2177V27H49.4038V29ZM66.2177 28V24.5994H64.2177V28H66.2177ZM65.2177 23.5994H53.354V25.5994H65.2177V23.5994ZM54.354 24.5994V1.81818H52.354V24.5994H54.354ZM53.354 0.818181H49.4038V2.81818H53.354V0.818181ZM48.4038 1.81818V28H50.4038V1.81818H48.4038ZM100.997 10.3324V11.3324H102.17L101.985 10.1746L100.997 10.3324ZM100.997 19.5753L101.984 19.7385L102.176 18.5791L101 18.5753L100.997 19.5753ZM97.0085 19.5625L97.0117 18.5625L96.1911 18.5599L96.0284 19.3642L97.0085 19.5625ZM97.0085 10.3324L96.0265 10.5214L96.1826 11.3324H97.0085V10.3324ZM101.985 10.1746C101.004 4.03555 96.1515 0.460226 90.1818 0.460226V2.46023C95.2831 2.46023 99.201 5.43036 100.01 10.4902L101.985 10.1746ZM90.1818 0.460226C86.5325 0.460226 83.3124 1.83348 81.0126 4.37337C78.7188 6.90671 77.4077 10.5242 77.4077 14.9091H79.4077C79.4077 10.9205 80.5958 7.81346 82.4952 5.71576C84.3886 3.62462 87.0556 2.46023 90.1818 2.46023V0.460226ZM77.4077 14.9091C77.4077 19.2927 78.7116 22.9103 81.0025 25.4442C83.2997 27.9852 86.5205 29.358 90.1818 29.358V27.358C87.042 27.358 84.3757 26.1931 82.4861 24.103C80.5902 22.0059 79.4077 18.8991 79.4077 14.9091H77.4077ZM90.1818 29.358C96.3996 29.358 101.043 25.4224 101.984 19.7385L100.011 19.4121C99.2378 24.0833 95.4697 27.358 90.1818 27.358V29.358ZM101 18.5753L97.0117 18.5625L97.0053 20.5625L100.994 20.5753L101 18.5753ZM96.0284 19.3642C95.463 22.1589 93.1389 23.7528 90.2074 23.7528V25.7528C93.8981 25.7528 97.1989 23.6649 97.9887 19.7608L96.0284 19.3642ZM90.2074 23.7528C88.2355 23.7528 86.5539 23.006 85.3499 21.586C84.1338 20.1518 83.3324 17.9419 83.3324 14.9091H81.3324C81.3324 18.2811 82.2249 20.9931 83.8245 22.8795C85.4361 24.7802 87.692 25.7528 90.2074 25.7528V23.7528ZM83.3324 14.9091C83.3324 11.9027 84.1302 9.69153 85.3479 8.24987C86.5535 6.82264 88.2386 6.06534 90.2202 6.06534V4.06534C87.6889 4.06534 85.4302 5.05307 83.82 6.95929C82.2221 8.85108 81.3324 11.5618 81.3324 14.9091H83.3324ZM90.2202 6.06534C93.1661 6.06534 95.4809 7.68639 96.0265 10.5214L97.9905 10.1434C97.2321 6.20282 93.9475 4.06534 90.2202 4.06534V6.06534ZM97.0085 11.3324H100.997V9.33239H97.0085V11.3324ZM107.76 28V29H108.472L108.705 28.3277L107.76 28ZM110.163 21.071V20.071H109.452L109.219 20.7433L110.163 21.071ZM120.391 21.071L121.336 20.7449L121.103 20.071H120.391V21.071ZM122.781 28L121.836 28.3262L122.068 29H122.781V28ZM126.974 28V29H128.397L127.915 27.6614L126.974 28ZM117.553 1.81818L118.493 1.47958L118.255 0.818181H117.553V1.81818ZM112.989 1.81818V0.818181H112.286L112.048 1.47958L112.989 1.81818ZM103.567 28L102.626 27.6614L102.144 29H103.567V28ZM111.314 17.7472L110.369 17.4206L109.91 18.7472H111.314V17.7472ZM115.175 6.57386V5.57386H114.462L114.23 6.24727L115.175 6.57386ZM115.379 6.57386L116.324 6.24727L116.092 5.57386H115.379V6.57386ZM119.24 17.7472V18.7472H120.644L120.185 17.4206L119.24 17.7472ZM108.705 28.3277L111.108 21.3987L109.219 20.7433L106.815 27.6723L108.705 28.3277ZM110.163 22.071H120.391V20.071H110.163V22.071ZM119.445 21.3972L121.836 28.3262L123.727 27.6738L121.336 20.7449L119.445 21.3972ZM122.781 29H126.974V27H122.781V29ZM127.915 27.6614L118.493 1.47958L116.612 2.15679L126.034 28.3386L127.915 27.6614ZM117.553 0.818181H112.989V2.81818H117.553V0.818181ZM112.048 1.47958L102.626 27.6614L104.508 28.3386L113.93 2.15679L112.048 1.47958ZM103.567 29H107.76V27H103.567V29ZM112.259 18.0737L116.12 6.90045L114.23 6.24727L110.369 17.4206L112.259 18.0737ZM115.175 7.57386H115.379V5.57386H115.175V7.57386ZM114.434 6.90045L118.295 18.0737L120.185 17.4206L116.324 6.24727L114.434 6.90045ZM119.24 16.7472H111.314V18.7472H119.24V16.7472ZM144.824 8.69602L143.831 8.81164L143.934 9.69602H144.824V8.69602ZM148.634 8.69602V9.69602H149.662L149.634 8.66859L148.634 8.69602ZM137.026 15.8935L137.289 14.9287L137.287 14.9282L137.026 15.8935ZM140.12 16.7372L139.857 17.702L139.864 17.7039L140.12 16.7372ZM133.472 20.7642L134.469 20.6837L134.394 19.7642H133.472V20.7642ZM129.509 20.7642V19.7642H128.454L128.51 20.818L129.509 20.7642ZM141.462 13.4006L141.21 14.3685L141.223 14.3716L141.462 13.4006ZM138.905 12.7358L139.157 11.768L139.153 11.7671L138.905 12.7358ZM134.15 8.74716L135.15 8.75226V8.74716H134.15ZM144.824 9.69602H148.634V7.69602H144.824V9.69602ZM149.634 8.66859C149.499 3.763 145.164 0.460226 139.493 0.460226V2.46023C144.459 2.46023 147.539 5.24268 147.634 8.72345L149.634 8.66859ZM139.493 0.460226C133.919 0.460226 129.212 3.70593 129.212 8.97727H131.212C131.212 5.22304 134.559 2.46023 139.493 2.46023V0.460226ZM129.212 8.97727C129.212 11.0697 129.974 12.7752 131.349 14.0962C132.694 15.3884 134.576 16.2666 136.765 16.8588L137.287 14.9282C135.27 14.3826 133.745 13.6244 132.735 12.6538C131.754 11.7121 131.212 10.5283 131.212 8.97727H129.212ZM136.763 16.8582L139.857 17.702L140.383 15.7725L137.289 14.9287L136.763 16.8582ZM139.864 17.7039C141.258 18.0731 142.347 18.4539 143.082 18.9604C143.755 19.4243 144.08 19.9514 144.08 20.7259H146.08C146.08 19.1736 145.325 18.0771 144.217 17.3138C143.172 16.5929 141.781 16.1428 140.376 15.7705L139.864 17.7039ZM144.08 20.7259C144.08 21.6469 143.655 22.4197 142.855 22.995C142.033 23.5859 140.802 23.9702 139.276 23.9702V25.9702C141.112 25.9702 142.783 25.5107 144.023 24.6186C145.284 23.711 146.08 22.3616 146.08 20.7259H144.08ZM139.276 23.9702C137.888 23.9702 136.706 23.659 135.874 23.1044C135.075 22.5711 134.558 21.7904 134.469 20.6837L132.475 20.8447C132.616 22.5889 133.48 23.9112 134.764 24.7681C136.017 25.6038 137.621 25.9702 139.276 25.9702V23.9702ZM133.472 19.7642H129.509V21.7642H133.472V19.7642ZM128.51 20.818C128.652 23.4553 129.757 25.6482 131.682 27.1637C133.587 28.6637 136.21 29.4347 139.301 29.4347V27.4347C136.525 27.4347 134.379 26.7418 132.919 25.5923C131.479 24.4584 130.621 22.816 130.507 20.7104L128.51 20.818ZM139.301 29.4347C142.544 29.4347 145.212 28.5816 147.089 27.0347C148.982 25.474 149.992 23.2688 149.992 20.7642H147.992C147.992 22.6957 147.231 24.3257 145.817 25.4913C144.386 26.6705 142.208 27.4347 139.301 27.4347V29.4347ZM149.992 20.7642C149.992 18.053 148.761 16.1418 147.09 14.8329C145.459 13.5551 143.415 12.8514 141.701 12.4296L141.223 14.3716C142.833 14.7679 144.554 15.3873 145.857 16.4075C147.12 17.3966 147.992 18.7581 147.992 20.7642H149.992ZM141.714 12.4327L139.157 11.768L138.654 13.7036L141.21 14.3684L141.714 12.4327ZM139.153 11.7671C138.146 11.5089 137.093 11.1706 136.307 10.6505C135.554 10.152 135.145 9.56302 135.149 8.75226L133.15 8.74206C133.141 10.437 134.088 11.5802 135.204 12.3186C136.287 13.0353 137.619 13.4385 138.657 13.7045L139.153 11.7671ZM135.15 8.74716C135.15 7.96956 135.493 7.28793 136.173 6.77318C136.869 6.24511 137.954 5.87358 139.404 5.87358V3.87358C137.632 3.87358 136.089 4.32662 134.965 5.17924C133.822 6.04517 133.15 7.30032 133.15 8.74716H135.15ZM139.404 5.87358C140.76 5.87358 141.83 6.19189 142.566 6.70102C143.281 7.19558 143.724 7.89705 143.831 8.81164L145.818 8.5804C145.643 7.0788 144.878 5.86905 143.704 5.05644C142.551 4.2584 141.052 3.87358 139.404 3.87358V5.87358ZM153.712 28H152.712V29H153.712V28ZM170.281 28V29H171.281V28H170.281ZM170.281 24.5994H171.281V23.5994H170.281V24.5994ZM157.663 24.5994H156.663V25.5994H157.663V24.5994ZM157.663 16.5838V15.5838H156.663V16.5838H157.663ZM169.271 16.5838V17.5838H170.271V16.5838H169.271ZM169.271 13.196H170.271V12.196H169.271V13.196ZM157.663 13.196H156.663V14.196H157.663V13.196ZM157.663 5.21875V4.21875H156.663V5.21875H157.663ZM170.127 5.21875V6.21875H171.127V5.21875H170.127ZM170.127 1.81818H171.127V0.818181H170.127V1.81818ZM153.712 1.81818V0.818181H152.712V1.81818H153.712ZM153.712 29H170.281V27H153.712V29ZM171.281 28V24.5994H169.281V28H171.281ZM170.281 23.5994H157.663V25.5994H170.281V23.5994ZM158.663 24.5994V16.5838H156.663V24.5994H158.663ZM157.663 17.5838H169.271V15.5838H157.663V17.5838ZM170.271 16.5838V13.196H168.271V16.5838H170.271ZM169.271 12.196H157.663V14.196H169.271V12.196ZM158.663 13.196V5.21875H156.663V13.196H158.663ZM157.663 6.21875H170.127V4.21875H157.663V6.21875ZM171.127 5.21875V1.81818H169.127V5.21875H171.127ZM170.127 0.818181H153.712V2.81818H170.127V0.818181ZM152.712 1.81818V28H154.712V1.81818H152.712ZM189.684 8.69602L188.69 8.81164L188.793 9.69602H189.684V8.69602ZM193.493 8.69602V9.69602H194.521L194.493 8.66859L193.493 8.69602ZM181.885 15.8935L182.148 14.9287L182.146 14.9282L181.885 15.8935ZM184.979 16.7372L184.716 17.702L184.723 17.7039L184.979 16.7372ZM178.331 20.7642L179.328 20.6837L179.254 19.7642H178.331V20.7642ZM174.368 20.7642V19.7642H173.313L173.37 20.818L174.368 20.7642ZM186.321 13.4006L186.07 14.3685L186.082 14.3716L186.321 13.4006ZM183.765 12.7358L184.016 11.768L184.013 11.7671L183.765 12.7358ZM179.009 8.74716L180.009 8.75226V8.74716H179.009ZM189.684 9.69602H193.493V7.69602H189.684V9.69602ZM194.493 8.66859C194.358 3.763 190.023 0.460226 184.353 0.460226V2.46023C189.318 2.46023 192.398 5.24268 192.494 8.72345L194.493 8.66859ZM184.353 0.460226C178.778 0.460226 174.071 3.70593 174.071 8.97727H176.071C176.071 5.22304 179.419 2.46023 184.353 2.46023V0.460226ZM174.071 8.97727C174.071 11.0697 174.833 12.7752 176.208 14.0962C177.553 15.3884 179.435 16.2666 181.624 16.8588L182.146 14.9282C180.13 14.3826 178.604 13.6244 177.594 12.6538C176.614 11.7121 176.071 10.5283 176.071 8.97727H174.071ZM181.622 16.8582L184.716 17.702L185.242 15.7725L182.148 14.9287L181.622 16.8582ZM184.723 17.7039C186.117 18.0731 187.207 18.4539 187.941 18.9604C188.614 19.4243 188.939 19.9514 188.939 20.7259H190.939C190.939 19.1736 190.184 18.0771 189.077 17.3138C188.031 16.5929 186.641 16.1428 185.235 15.7705L184.723 17.7039ZM188.939 20.7259C188.939 21.6469 188.514 22.4197 187.714 22.995C186.893 23.5859 185.661 23.9702 184.135 23.9702V25.9702C185.972 25.9702 187.642 25.5107 188.882 24.6186C190.144 23.711 190.939 22.3616 190.939 20.7259H188.939ZM184.135 23.9702C182.747 23.9702 181.565 23.659 180.734 23.1044C179.934 22.5711 179.417 21.7904 179.328 20.6837L177.335 20.8447C177.475 22.5889 178.339 23.9112 179.624 24.7681C180.876 25.6038 182.481 25.9702 184.135 25.9702V23.9702ZM178.331 19.7642H174.368V21.7642H178.331V19.7642ZM173.37 20.818C173.512 23.4553 174.616 25.6482 176.541 27.1637C178.447 28.6637 181.07 29.4347 184.161 29.4347V27.4347C181.384 27.4347 179.239 26.7418 177.779 25.5923C176.338 24.4584 175.48 22.816 175.367 20.7104L173.37 20.818ZM184.161 29.4347C187.403 29.4347 190.071 28.5816 191.948 27.0347C193.842 25.474 194.851 23.2688 194.851 20.7642H192.851C192.851 22.6957 192.09 24.3257 190.676 25.4913C189.245 26.6705 187.068 27.4347 184.161 27.4347V29.4347ZM194.851 20.7642C194.851 18.053 193.62 16.1418 191.949 14.8329C190.318 13.5551 188.274 12.8514 186.56 12.4296L186.082 14.3716C187.692 14.7679 189.414 15.3873 190.716 16.4075C191.979 17.3966 192.851 18.7581 192.851 20.7642H194.851ZM186.573 12.4327L184.016 11.768L183.513 13.7036L186.07 14.3684L186.573 12.4327ZM184.013 11.7671C183.005 11.5089 181.953 11.1706 181.167 10.6505C180.413 10.152 180.005 9.56302 180.009 8.75226L178.009 8.74206C178 10.437 178.947 11.5802 180.063 12.3186C181.147 13.0353 182.478 13.4385 183.516 13.7045L184.013 11.7671ZM180.009 8.74716C180.009 7.96956 180.353 7.28793 181.032 6.77318C181.729 6.24511 182.814 5.87358 184.263 5.87358V3.87358C182.491 3.87358 180.949 4.32662 179.824 5.17924C178.681 6.04517 178.009 7.30032 178.009 8.74716H180.009ZM184.263 5.87358C185.619 5.87358 186.69 6.19189 187.425 6.70102C188.14 7.19558 188.584 7.89705 188.69 8.81164L190.677 8.5804C190.502 7.0788 189.738 5.86905 188.564 5.05644C187.41 4.2584 185.911 3.87358 184.263 3.87358V5.87358Z" fill="#029C53"/>
</svg>
