<svg width="119" height="60" viewBox="0 0 119 60" fill="none" xmlns="http://www.w3.org/2000/svg">
<path d="M118 4.84766C118 18.4816 118 32.1155 118 45.7494C118 48.899 115.82 39.8105 114.699 36.8519C111.717 28.9813 108.403 21.2584 105.289 13.4408C105.045 12.8284 102.459 4.22256 101.322 4.47551C99.0913 4.97144 99.5214 25.9658 99.3905 28.3264C99.3247 29.5135 100.702 44.3579 96.6166 40.1673C87.2678 30.5785 81.2536 16.7801 74.8119 5.25363C74.6821 5.0213 72.4708 0.432865 72.1785 1.05857C71.1511 3.25849 71.4484 7.19504 71.371 9.38102C71.1793 14.7928 71.1109 20.2079 70.9145 25.6199C70.7084 31.2999 70.68 37.0111 70.1069 42.6708C69.939 44.3289 70.1758 46.5263 68.0002 44.43C60.9387 37.6262 58.0663 28.6166 53.5339 20.3423C52.1673 17.8473 51.5699 23.8143 51.5676 23.8269C49.6392 34.3561 47.6412 44.9407 46.0901 55.5266C45.9587 56.4237 45.7137 60.7747 44.4048 57.6918C41.897 51.7853 40.0995 45.2928 38.6463 39.0847C38.2325 37.3165 35.6519 16.1149 32.9231 16.5194C31.6065 16.7145 30.4404 19.3643 30.079 20.0716C27.5356 25.0493 25.5705 30.3352 23.5832 35.5324C20.7883 42.8419 17.5922 50.3065 15.6829 57.8948C15.5922 58.2553 15.5205 59.2454 15.2967 58.9436C14.584 57.9822 14.9842 53.9943 14.9807 53.2261C14.9277 41.6789 14.9807 30.1304 14.9807 18.5831C14.9807 18.1252 15.5677 8.7895 14.8051 8.56908C12.0951 7.78573 6.25788 25.9215 5.67596 27.6836C4.0232 32.6885 2.67855 37.7811 1.35715 42.8738C1.29242 43.1233 1.2789 43.3948 1.14648 43.6181C0.827052 44.1567 1.12055 42.3749 1.18159 41.7574C1.52462 38.287 2.20373 34.8685 2.83187 31.4389C4.11463 24.4351 5.22473 17.4037 6.48354 10.396C6.49639 10.3244 6.76444 6.93589 6.76444 7.89245" stroke="#FBFE67" stroke-linecap="round" stroke-linejoin="round"/>
</svg>
