<svg width="87" height="52" viewBox="0 0 87 52" fill="none" xmlns="http://www.w3.org/2000/svg">
<path d="M70.5196 51C48.2865 51 26.0535 51 3.82036 51C-10.1742 51 31.7411 48.7345 45.6934 47.4789C56.9686 46.4642 68.4037 43.9041 79.6519 43.2535C81.5938 43.1412 70.4436 40.8905 69.3358 40.7105C54.0151 38.2207 38.739 35.0952 23.6746 31.0078C22.8453 30.7828 13.3643 29.4423 17.8232 29.0125C32.1464 27.6319 46.4783 27.0563 60.8462 27.0563C61.1268 27.0563 68.764 27.0957 68.5241 26.5869C67.026 23.41 60.1233 22.617 57.6668 21.9703C49.3983 19.7933 41.0565 18.3572 32.6377 17.2363C25.6077 16.3003 18.6679 15.7887 11.5997 15.7887C9.73302 15.7887 12.2009 15.409 12.7835 15.2801C23.5727 12.8943 34.4056 10.8 45.2876 9.05947C58.3557 6.96927 71.642 7.19362 84.6577 5.18623C91.3021 4.16148 71.4654 2.10925 64.7697 1.74335C53.5388 1.1296 42.3222 1 31.0818 1C30.9346 1 25.156 1 27.9363 1C31.9838 1 36.0313 1 40.0788 1" stroke="#FBFE67" stroke-linecap="round" stroke-linejoin="round"/>
</svg>
