<svg width="127" height="58" viewBox="0 0 127 58" fill="none" xmlns="http://www.w3.org/2000/svg">
<path d="M121.888 46.6368C124.165 38.2838 129.334 25.691 122.848 17.724C117.962 11.7228 108.101 11.722 101.327 13.6734C87.3198 17.7083 72.975 28.7793 63.6313 39.9323C62.8969 40.809 51.5556 56.1037 54.1046 56.9029C57.3806 57.93 63.6005 50.5101 65.3448 48.8017C70.5702 43.6837 75.3583 38.1147 79.395 31.9709C81.5685 28.6627 88.445 18.2465 85.8375 13.4639C84.0645 10.212 75.8539 10.6381 73.0895 10.4609C66.3359 10.0279 59.3813 9.8556 52.6653 10.845C44.0509 12.1141 36.3054 17.2393 27.8548 18.3875C23.4021 18.9924 22.8595 18.3343 22.6117 12.9052C22.4691 9.78223 23.5619 5.06965 22.4746 2.11529C21.7507 0.148207 12.3616 1.382 10.7547 1.382C7.90573 1.382 4.30895 0.833877 1.70775 2.32481C0.430729 3.05676 1.19066 2.64842 1.60494 1.382" stroke="#FBFE67" stroke-linecap="round" stroke-linejoin="round"/>
</svg>
