<svg width="96" height="58" viewBox="0 0 96 58" fill="none" xmlns="http://www.w3.org/2000/svg">
<path d="M18.9913 9.81324C13.0549 15.4076 8.40312 22.3795 5.02664 29.3753C2.8861 33.8103 1.32557 39.1332 1.5559 44.0299C1.75044 48.1658 5.48784 48.681 9.70765 48.4313C17.7512 47.9554 24.0908 43.765 29.2073 38.7508C33.6652 34.382 37.4579 29.0532 38.8662 23.2794C39.329 21.3823 40.5877 16.5162 38.6772 14.8421C34.661 11.3229 26.3844 16.5897 23.6439 18.6098C19.5333 21.64 16.1834 25.3856 13.6785 29.515C11.4837 33.1331 9.34438 37.4499 9.30673 41.6391C9.2432 48.709 16.5023 52.6335 24.1601 52.2102C28.1577 51.9893 32.824 50.5813 36.2591 49.0348C43.6116 45.7245 50.3415 40.9795 55.4173 35.3475C60.4411 29.7733 65.0944 22.0227 65.7832 14.7982C66.116 11.3073 64.8277 8.46847 60.178 10.2751C57.1748 11.4421 55.4381 12.914 53.2263 15.083C48.9035 19.3222 45.3341 24.3413 42.622 29.4789C40.8453 32.8447 36.9075 40.2541 41.9856 43.1472C47.2682 46.1568 55.964 45.0164 60.9964 42.5303C72.1445 37.0231 77.1567 26.2324 78.8099 15.7196C79.4762 11.4827 79.9167 4.84378 72.6491 5.38435C69.4968 5.61882 67.8535 6.59964 65.6274 8.56965C61.2874 12.4105 58.0864 17.6763 55.6403 22.5628C53.6435 26.5517 51.8191 31.4262 58.0221 33.0496C63.8104 34.5644 71.5895 34.9006 77.203 32.9515C84.4652 30.43 89.6608 24.3676 92.7084 18.394C93.9889 15.884 96.6992 9.6254 91.6083 8.33499C89.2177 7.72905 86.1825 8.49945 84.1588 9.39387C78.4928 11.898 73.7798 16.3269 69.6859 20.3917C66.0969 23.9552 62.7364 27.7883 60.8276 32.2755C59.8018 34.6867 58.93 37.8714 60.148 40.4043C62.3666 45.0179 70.096 47.2775 75.1818 48.3387" stroke="#DAC5FA" stroke-linecap="round" stroke-linejoin="round"/>
</svg>
