<svg width="32" height="32" viewBox="0 0 32 32" fill="none" xmlns="http://www.w3.org/2000/svg">
<path d="M8 10V22H15.5655V20.4743H9.65704V16.7371H15.0131V15.1943H9.65704V11.5257H15.4818V10H8Z" fill="#029C53"/>
<path d="M17.2839 13.5829V22H18.8572V17.7143C18.8572 15.7943 19.8448 14.7657 21.3177 14.7657C22.64 14.7657 23.4434 15.4686 23.4434 17.0114V22H25V16.9257C25 14.7314 23.6108 13.4286 21.7696 13.4286C20.146 13.4286 19.3594 14.1829 18.9911 14.9371H18.8237V13.5829H17.2839Z" fill="#029C53"/>
<path fill-rule="evenodd" clip-rule="evenodd" d="M16 31.2C24.3947 31.2 31.2 24.3947 31.2 16C31.2 7.60527 24.3947 0.8 16 0.8C7.60527 0.8 0.8 7.60527 0.8 16C0.8 24.3947 7.60527 31.2 16 31.2ZM16 32C24.8366 32 32 24.8366 32 16C32 7.16344 24.8366 0 16 0C7.16344 0 0 7.16344 0 16C0 24.8366 7.16344 32 16 32Z" fill="#029C53"/>
</svg>
