<svg width="32" height="32" viewBox="0 0 32 32" fill="none" xmlns="http://www.w3.org/2000/svg">
<path fill-rule="evenodd" clip-rule="evenodd" d="M16 32C24.8366 32 32 24.8366 32 16C32 7.16344 24.8366 0 16 0C7.16344 0 0 7.16344 0 16C0 24.8366 7.16344 32 16 32ZM15.5655 22H8V10H15.4818V11.5257H9.65704V15.1943H15.0131V16.7371H9.65704V20.4743H15.5655V22ZM17.2839 22V13.5829H18.8237V14.9371H18.9911C19.3594 14.1829 20.146 13.4286 21.7696 13.4286C23.6108 13.4286 25 14.7314 25 16.9257V22H23.4434V17.0114C23.4434 15.4686 22.64 14.7657 21.3177 14.7657C19.8448 14.7657 18.8572 15.7943 18.8572 17.7143V22H17.2839Z" fill="#DAC5FA"/>
</svg>
