<svg width="32" height="32" viewBox="0 0 32 32" fill="none" xmlns="http://www.w3.org/2000/svg">
<path fill-rule="evenodd" clip-rule="evenodd" d="M16 32C24.8366 32 32 24.8366 32 16C32 7.16344 24.8366 0 16 0C7.16344 0 0 7.16344 0 16C0 24.8366 7.16344 32 16 32ZM12.6526 10C14.6782 10 16.15 11.354 16.15 13.5543C16.15 15.4161 15.058 16.6855 13.523 17.024L15.9443 21.8477H14.156L11.893 17.1086H9.5667V21.8477H8V10H12.6526ZM12.4944 11.5063H9.5667V15.6192H12.4944C13.792 15.6192 14.5833 14.8406 14.5833 13.5543C14.5833 12.2849 13.792 11.5063 12.4944 11.5063ZM25 13.5374V21.8477H23.5441V20.5106H23.3858C23.0377 21.2553 22.2939 22 20.7588 22C19.0181 22 17.7046 20.7137 17.7046 18.5472V13.5374H19.1763V18.4626C19.1763 19.9859 19.9359 20.6798 21.1861 20.6798C22.5787 20.6798 23.5124 19.6643 23.5124 17.7687V13.5374H25Z" fill="#DAC5FA"/>
</svg>
