<svg width="174" height="36" viewBox="0 0 174 36" fill="none" xmlns="http://www.w3.org/2000/svg">
<path d="M103.238 30.0778V34.6134H106.081V34.0367H103.861V32.6242H105.874V32.041H103.861V30.6544H106.05V30.0778H103.238Z" fill="#029C53"/>
<path d="M106.4 31.432L107.539 34.6134H108.394L109.539 31.432H108.897L107.998 34.0756H107.935L107.042 31.432H106.4Z" fill="#029C53"/>
<path d="M109.8 33C109.8 33.9784 110.448 34.7041 111.392 34.7041C112.216 34.7041 112.574 34.2505 112.782 33.8683L112.285 33.5896C112.147 33.8942 111.889 34.1728 111.385 34.1728C110.819 34.1728 110.448 33.7775 110.417 33.2138H112.838V32.9222C112.838 31.9568 112.228 31.3413 111.348 31.3413C110.448 31.3413 109.8 32.0475 109.8 33ZM110.417 32.7214C110.473 32.2095 110.813 31.8726 111.348 31.8726C111.857 31.8726 112.197 32.1901 112.228 32.7214H110.417Z" fill="#029C53"/>
<path d="M113.46 31.432V34.6134H114.051V32.9935C114.051 32.2678 114.422 31.879 114.976 31.879C115.473 31.879 115.775 32.1447 115.775 32.7279V34.6134H116.36V32.6955C116.36 31.8661 115.838 31.3737 115.146 31.3737C114.536 31.3737 114.24 31.6587 114.101 31.9438H114.039V31.432H113.46Z" fill="#029C53"/>
<path d="M116.732 31.9309H117.625V34.0173C117.625 34.3801 117.851 34.6134 118.197 34.6134H119.053V34.1145H118.392C118.279 34.1145 118.216 34.0497 118.216 33.9201V31.9309H119.172V31.432H118.216V30.3434H117.625V31.432H116.732V31.9309Z" fill="#029C53"/>
<path d="M119.705 32.2808C119.705 32.8575 120.196 33.1166 120.856 33.2462L121.127 33.2981C121.58 33.3758 121.831 33.4665 121.831 33.7516C121.831 34.0173 121.586 34.2181 121.114 34.2181C120.655 34.2181 120.221 34.0173 120.082 33.4665L119.542 33.6544C119.768 34.3348 120.347 34.7041 121.127 34.7041C121.888 34.7041 122.41 34.3348 122.41 33.7192C122.41 33.0907 121.869 32.8963 121.208 32.7797L120.944 32.7279C120.517 32.6501 120.277 32.5464 120.277 32.2613C120.277 31.9827 120.554 31.8272 120.938 31.8272C121.341 31.8272 121.737 31.9892 121.913 32.527L122.448 32.3197C122.196 31.7106 121.655 31.3413 120.932 31.3413C120.208 31.3413 119.705 31.7106 119.705 32.2808Z" fill="#029C53"/>
<path d="M124.683 31.432L125.382 34.6134H126.231L126.885 31.9698H126.948L127.602 34.6134H128.451L129.15 31.432H128.552L128.043 34.0756H127.98L127.325 31.432H126.508L125.854 34.0756H125.791L125.281 31.432H124.683Z" fill="#029C53"/>
<path d="M129.588 30.4665C129.588 30.7322 129.783 30.9266 130.041 30.9266C130.305 30.9266 130.5 30.7322 130.5 30.4665C130.5 30.1944 130.305 30 130.041 30C129.783 30 129.588 30.1944 129.588 30.4665ZM130.336 31.432H129.745V34.6134H130.336V31.432Z" fill="#029C53"/>
<path d="M130.805 31.9309H131.698V34.0173C131.698 34.3801 131.925 34.6134 132.271 34.6134H133.126V34.1145H132.466C132.353 34.1145 132.29 34.0497 132.29 33.9201V31.9309H133.246V31.432H132.29V30.3434H131.698V31.432H130.805V31.9309Z" fill="#029C53"/>
<path d="M133.873 30.0778V34.6134H134.464V32.9935C134.464 32.2678 134.835 31.879 135.389 31.879C135.886 31.879 136.188 32.1447 136.188 32.7279V34.6134H136.773V32.6955C136.773 31.8661 136.251 31.3737 135.559 31.3737C134.949 31.3737 134.666 31.6523 134.527 31.9179H134.464V30.0778H133.873Z" fill="#029C53"/>
<path d="M139.439 31.432V34.6134H140.03V32.6955C140.03 32.1706 140.313 31.879 140.734 31.879C141.131 31.879 141.357 32.1188 141.357 32.5205V34.6134H141.948V32.6955C141.948 32.1706 142.232 31.879 142.653 31.879C143.049 31.879 143.282 32.1188 143.282 32.5205V34.6134H143.867V32.4816C143.867 31.7754 143.427 31.3737 142.829 31.3737C142.332 31.3737 142.055 31.6004 141.892 31.9244H141.829C141.691 31.6069 141.414 31.3737 140.942 31.3737C140.483 31.3737 140.219 31.5745 140.08 31.8402H140.017V31.432H139.439Z" fill="#029C53"/>
<path d="M144.484 33C144.484 33.9784 145.131 34.7041 146.075 34.7041C146.899 34.7041 147.258 34.2505 147.465 33.8683L146.968 33.5896C146.83 33.8942 146.572 34.1728 146.069 34.1728C145.503 34.1728 145.131 33.7775 145.1 33.2138H147.522V32.9222C147.522 31.9568 146.912 31.3413 146.031 31.3413C145.131 31.3413 144.484 32.0475 144.484 33ZM145.1 32.7214C145.157 32.2095 145.496 31.8726 146.031 31.8726C146.541 31.8726 146.88 32.1901 146.912 32.7214H145.1Z" fill="#029C53"/>
<path d="M147.974 32.3521L148.54 32.5464C148.64 32.1447 148.905 31.8402 149.408 31.8402C149.905 31.8402 150.156 32.1447 150.156 32.5594V32.6501L149.062 32.8121C148.427 32.9028 147.93 33.1685 147.93 33.7711C147.93 34.3736 148.408 34.7041 149.049 34.7041C149.672 34.7041 149.968 34.3931 150.112 34.1533H150.169V34.6134H150.741V32.5983C150.741 31.8207 150.238 31.3413 149.427 31.3413C148.622 31.3413 148.162 31.8207 147.974 32.3521ZM148.521 33.7451C148.521 33.4536 148.766 33.311 149.125 33.2527L150.156 33.1037V33.2397C150.156 33.8618 149.741 34.2246 149.156 34.2246C148.747 34.2246 148.521 34.0367 148.521 33.7451Z" fill="#029C53"/>
<path d="M151.546 31.432V34.6134H152.138V32.9935C152.138 32.2678 152.509 31.879 153.062 31.879C153.559 31.879 153.861 32.1447 153.861 32.7279V34.6134H154.446V32.6955C154.446 31.8661 153.924 31.3737 153.232 31.3737C152.622 31.3737 152.326 31.6587 152.188 31.9438H152.125V31.432H151.546Z" fill="#029C53"/>
<path d="M155.093 30.4665C155.093 30.7322 155.288 30.9266 155.546 30.9266C155.811 30.9266 156.006 30.7322 156.006 30.4665C156.006 30.1944 155.811 30 155.546 30C155.288 30 155.093 30.1944 155.093 30.4665ZM155.842 31.432H155.251V34.6134H155.842V31.432Z" fill="#029C53"/>
<path d="M156.682 31.432V34.6134H157.273V32.9935C157.273 32.2678 157.644 31.879 158.198 31.879C158.695 31.879 158.997 32.1447 158.997 32.7279V34.6134H159.582V32.6955C159.582 31.8661 159.06 31.3737 158.368 31.3737C157.758 31.3737 157.462 31.6587 157.324 31.9438H157.261V31.432H156.682Z" fill="#029C53"/>
<path d="M162.808 31.432V31.9438H162.745C162.556 31.6263 162.229 31.3413 161.625 31.3413C160.845 31.3413 160.191 31.9892 160.191 32.9806C160.191 33.9784 160.845 34.6199 161.625 34.6199C162.229 34.6199 162.556 34.3283 162.733 34.0432H162.795V34.4514C162.795 35.1382 162.374 35.4687 161.808 35.4687C161.267 35.4687 160.927 35.1512 160.751 34.7948L160.242 35.1058C160.543 35.6048 161.009 36 161.839 36C162.795 36 163.387 35.365 163.387 34.4903V31.432H162.808ZM161.789 34.095C161.204 34.095 160.789 33.6674 160.789 32.9806C160.789 32.3002 161.204 31.8726 161.789 31.8726C162.374 31.8726 162.802 32.3002 162.802 32.9806C162.802 33.6609 162.374 34.095 161.789 34.095Z" fill="#029C53"/>
<path d="M166.087 30.0778V30.311H166.559V31.5162H166.81V30.311H167.282V30.0778H166.087ZM167.471 30.0778V31.5162H167.722V30.311H167.747L168.081 31.5162H168.458L168.792 30.311H168.817V31.5162H169.068V30.0778H168.616L168.282 31.2829H168.257L167.924 30.0778H167.471Z" fill="#029C53"/>
<path d="M3.17256 21.5117L7.80157 7.95722C7.93329 7.59347 7.99915 7.27758 7.99915 7.00956C7.99915 6.4735 7.50991 6.20548 6.53142 6.20548H5.51529C5.38357 6.20548 5.28949 6.18633 5.23304 6.14804C5.17659 6.09061 5.15777 6.01403 5.17659 5.91831L5.28949 5.43011C5.34594 5.23867 5.44943 5.14294 5.59997 5.14294L6.16448 5.17166C6.54083 5.17166 7.16179 5.18123 8.02738 5.20038C8.89296 5.21952 9.9279 5.2291 11.1322 5.2291C11.3392 5.2291 11.4709 5.27696 11.5274 5.37268C11.6026 5.44926 11.6591 5.62156 11.6967 5.88959L13.0515 19.7599C13.1268 20.4683 13.362 20.5449 13.7572 19.9897L23.7208 5.68857C23.9278 5.38225 24.1725 5.2291 24.4547 5.2291C25.3767 5.2291 26.1671 5.21952 26.8257 5.20038C27.5031 5.18123 27.9923 5.17166 28.2934 5.17166C28.6133 5.15252 28.8015 5.14294 28.8579 5.14294C28.952 5.14294 29.0179 5.16209 29.0555 5.20038C29.1119 5.23867 29.1308 5.2961 29.1119 5.37268L28.999 5.97574C28.9802 6.1289 28.8861 6.20548 28.7168 6.20548H27.87C27.5501 6.20548 27.2773 6.37778 27.0515 6.72239C26.8445 7.04785 26.6375 7.5839 26.4305 8.33054L22.7894 21.7127C22.6389 22.3062 22.6389 22.7561 22.7894 23.0624C22.9587 23.3496 23.241 23.4932 23.6362 23.4932H24.5112C24.6805 23.4932 24.7464 23.5697 24.7087 23.7229L24.5958 24.326C24.577 24.4791 24.4641 24.5557 24.2571 24.5557C24.2007 24.5557 24.0313 24.5461 23.7491 24.527C23.4668 24.527 23.0811 24.5174 22.5918 24.4983C22.1026 24.4791 21.5663 24.4695 20.983 24.4695C20.3055 24.4695 19.6846 24.4695 19.1201 24.4695C18.5555 24.4887 18.1228 24.5078 17.8217 24.527C17.5206 24.5461 17.3513 24.5557 17.3136 24.5557C17.1254 24.5557 17.0408 24.46 17.0596 24.2685L17.116 23.7803C17.1537 23.5889 17.2572 23.4932 17.4265 23.4932H18.1604C18.819 23.4932 19.327 23.3209 19.6846 22.9763C20.0421 22.6317 20.3149 22.1243 20.5031 21.4543L24.2854 7.5839C24.3418 7.37331 24.3042 7.25844 24.1725 7.23929C24.0407 7.201 23.9278 7.25844 23.8337 7.41159L12.2612 24.0388C12.1295 24.2494 11.979 24.393 11.8096 24.4695C11.6403 24.527 11.4897 24.5078 11.358 24.4121C11.2263 24.2972 11.151 24.1058 11.1322 23.8378L9.52334 7.67005C9.50452 7.49775 9.46688 7.38288 9.41043 7.32544C9.35398 7.24887 9.28812 7.22972 9.21285 7.26801C9.1564 7.3063 9.10936 7.39245 9.07173 7.52646L4.44272 21.4543C3.99111 22.8135 4.1981 23.4932 5.06368 23.4932H6.05158C6.20212 23.4932 6.26798 23.5889 6.24916 23.7803L6.16448 24.326C6.12685 24.4791 6.01395 24.5557 5.82578 24.5557C5.76932 24.5557 5.60938 24.5461 5.34594 24.527C5.10132 24.527 4.76261 24.5174 4.32982 24.4983C3.89702 24.4791 3.42659 24.4695 2.91853 24.4695C2.44811 24.4695 2.0059 24.4695 1.59193 24.4695C1.19677 24.4887 0.876877 24.5078 0.632255 24.527C0.387632 24.5461 0.237096 24.5557 0.180644 24.5557C0.0301074 24.5557 -0.0263439 24.4791 0.0112903 24.326L0.124193 23.7229C0.14301 23.5697 0.20887 23.4932 0.321772 23.4932H0.886286C1.58252 23.4932 2.07176 23.34 2.35402 23.0337C2.65509 22.7082 2.92794 22.2009 3.17256 21.5117Z" fill="#029C53"/>
<path d="M36.1587 23.0435C35.1995 24.1625 33.9136 24.7219 32.3011 24.7219C31.0773 24.7219 30.0229 24.377 29.1381 23.6871C28.2533 22.9888 27.8109 22.0802 27.8109 20.9612C27.8109 19.8339 28.2451 18.9505 29.1133 18.3111C29.9816 17.6633 31.0979 17.3394 32.4624 17.3394C33.8351 17.3394 34.9803 17.6885 35.8982 18.3868V15.3833C35.8982 14.3653 35.7742 13.6754 35.5261 13.3136C35.278 12.9519 34.9845 12.6995 34.6454 12.5564C34.3147 12.4134 33.9467 12.3419 33.5415 12.3419C32.9048 12.3419 32.3673 12.4176 31.929 12.5691C31.4907 12.7121 31.1972 12.8593 31.0483 13.0108C31.4287 13.1285 31.7223 13.423 31.929 13.8941C31.9951 14.0624 32.0282 14.2643 32.0282 14.4999C32.0282 14.9626 31.8628 15.3496 31.5321 15.6609C31.2013 15.9638 30.8705 16.1152 30.5398 16.1152C29.9609 16.1152 29.5102 15.9596 29.1877 15.6483C28.8652 15.337 28.704 14.9626 28.704 14.5251C28.704 14.0876 28.7826 13.7301 28.9397 13.4524C29.0968 13.1664 29.3076 12.9098 29.5723 12.6826C30.0767 12.2536 30.7093 11.9255 31.4701 11.6983C32.2391 11.4711 32.9585 11.3576 33.6283 11.3576C35.4889 11.3576 36.8657 11.7404 37.7588 12.506C38.6519 13.2716 39.0984 14.34 39.0984 15.7114V22.4378C39.0984 23.1361 39.2679 23.4852 39.607 23.4852C39.946 23.4852 40.2727 23.2749 40.5869 22.8542L41.2319 23.3969C40.6696 24.2634 39.7517 24.6967 38.4782 24.6967C38.0317 24.6967 37.5769 24.5537 37.1138 24.2676C36.659 23.9816 36.3406 23.5735 36.1587 23.0435ZM35.9354 19.51C35.2326 18.8117 34.4635 18.4625 33.6283 18.4625C32.7931 18.4625 32.1647 18.6644 31.7429 19.0683C31.3212 19.4637 31.1103 20.1031 31.1103 20.9865C31.1103 22.2905 31.561 23.0814 32.4624 23.359C32.7187 23.4431 32.9792 23.4852 33.2438 23.4852C33.9963 23.4852 34.7157 23.1907 35.4021 22.6018C35.6005 22.4251 35.7783 22.2358 35.9354 22.0339V19.51Z" fill="#029C53"/>
<path d="M69.7022 23.8751C69.2788 24.168 68.83 24.392 68.3558 24.5471C67.8816 24.7022 67.3312 24.7797 66.7046 24.7797C65.6546 24.7797 64.7909 24.4351 64.1135 23.7459C63.453 23.0567 63.1228 22.0832 63.1228 20.8254V20.6961C61.1583 22.0056 59.2531 23.0308 57.4071 23.7717C55.5611 24.4954 53.6559 24.8572 51.6914 24.8572C50.0825 24.8572 48.66 24.6246 47.4237 24.1594C46.1874 23.6942 45.2221 23.0136 44.5277 22.1176C43.8503 21.2216 43.5116 20.1448 43.5116 18.8869C43.5116 17.4913 43.9519 16.2766 44.8326 15.2427C45.7132 14.1917 46.8987 13.3905 48.389 12.8391C49.8963 12.2705 51.5475 11.9862 53.3426 11.9862C56.5773 11.9862 59.8373 12.7013 63.1228 14.1314V8.7814H57.9152V6.73961H65.6123V20.4118C65.6123 21.17 65.7647 21.7386 66.0696 22.1176C66.3913 22.4795 66.7893 22.6604 67.2635 22.6604C67.8732 22.6604 68.4659 22.4622 69.0417 22.0659L69.7022 23.8751ZM52.0471 22.6862C53.6559 22.6862 55.4172 22.3502 57.3309 21.6782C59.2446 20.989 61.1752 20.0328 63.1228 18.8094V15.9664C61.7341 15.415 60.2014 14.9671 58.5248 14.6225C56.8482 14.2779 55.214 14.1055 53.622 14.1055C52.1825 14.1055 50.8954 14.3037 49.7608 14.7C48.6261 15.0791 47.7285 15.6218 47.068 16.3283C46.4245 17.0347 46.1027 17.8445 46.1027 18.7577C46.1027 19.9638 46.6277 20.9201 47.6777 21.6266C48.7277 22.333 50.1842 22.6862 52.0471 22.6862Z" fill="#029C53"/>
<path d="M72.2435 24.4695H95.1825L100.161 21.8592V13.7696H85.5039L96.7575 7.87681C98.3579 7.02391 99.1708 6.73961 99.9837 6.73961H100.187V6.37778H72.2435V6.73961H72.5737C73.0818 6.73961 73.412 6.73961 74.2757 7.69589V23.1514C73.412 24.1077 73.0818 24.1077 72.5737 24.1077H72.2435V24.4695ZM99.8058 14.1314V16.7935C99.8058 18.4476 99.5518 19.1971 98.4849 19.7657L92.2865 23.0222C90.7369 23.8493 90.2035 24.1077 89.1874 24.1077H77.0701V14.1314H99.8058ZM93.2773 6.73961L82.5063 12.3739C80.4741 13.4336 79.839 13.7696 78.5435 13.7696H77.0701V6.73961H93.2773Z" fill="#029C53"/>
<path d="M111.574 23.0435C110.615 24.1625 109.329 24.7219 107.717 24.7219C106.493 24.7219 105.438 24.377 104.554 23.6871C103.669 22.9888 103.226 22.0802 103.226 20.9612C103.226 19.8339 103.66 18.9505 104.529 18.3111C105.397 17.6633 106.513 17.3394 107.878 17.3394C109.25 17.3394 110.396 17.6885 111.314 18.3868V15.3833C111.314 14.3653 111.19 13.6754 110.942 13.3136C110.693 12.9519 110.4 12.6995 110.061 12.5564C109.73 12.4134 109.362 12.3419 108.957 12.3419C108.32 12.3419 107.783 12.4176 107.344 12.5691C106.906 12.7121 106.613 12.8593 106.464 13.0108C106.844 13.1285 107.138 13.423 107.344 13.8941C107.411 14.0624 107.444 14.2643 107.444 14.4999C107.444 14.9626 107.278 15.3496 106.947 15.6609C106.617 15.9638 106.286 16.1152 105.955 16.1152C105.376 16.1152 104.926 15.9596 104.603 15.6483C104.281 15.337 104.119 14.9626 104.119 14.5251C104.119 14.0876 104.198 13.7301 104.355 13.4524C104.512 13.1664 104.723 12.9098 104.988 12.6826C105.492 12.2536 106.125 11.9255 106.885 11.6983C107.655 11.4711 108.374 11.3576 109.044 11.3576C110.904 11.3576 112.281 11.7404 113.174 12.506C114.067 13.2716 114.514 14.34 114.514 15.7114V22.4378C114.514 23.1361 114.683 23.4852 115.022 23.4852C115.361 23.4852 115.688 23.2749 116.002 22.8542L116.647 23.3969C116.085 24.2634 115.167 24.6967 113.894 24.6967C113.447 24.6967 112.992 24.5537 112.529 24.2676C112.074 23.9816 111.756 23.5735 111.574 23.0435ZM111.351 19.51C110.648 18.8117 109.879 18.4625 109.044 18.4625C108.209 18.4625 107.58 18.6644 107.158 19.0683C106.737 19.4637 106.526 20.1031 106.526 20.9865C106.526 22.2905 106.976 23.0814 107.878 23.359C108.134 23.4431 108.395 23.4852 108.659 23.4852C109.412 23.4852 110.131 23.1907 110.817 22.6018C111.016 22.4251 111.194 22.2358 111.351 22.0339V19.51Z" fill="#029C53"/>
<path d="M120.445 24.4695H119.206C119.037 24.4695 118.921 24.448 118.857 24.4049C118.815 24.3619 118.815 24.2865 118.857 24.1788L121.112 18.202C122.213 15.316 122.763 13.6899 122.763 13.3237C122.763 12.9576 122.604 12.7745 122.287 12.7745C121.779 12.7745 120.889 13.496 119.619 14.9391C119.513 15.0468 119.408 15.036 119.302 14.9068L119.016 14.616C118.91 14.5083 118.889 14.4006 118.952 14.2929C119.249 13.9268 119.598 13.5499 120 13.1622C120.403 12.753 121.006 12.3007 121.81 11.8053C122.636 11.2884 123.387 11.0299 124.065 11.0299C124.404 11.0299 124.658 11.1376 124.827 11.353C124.996 11.5469 125.081 11.7622 125.081 11.9992C125.081 12.3007 124.965 12.7853 124.732 13.453C124.52 14.0991 124.255 14.7991 123.938 15.5529C123.641 16.3067 123.483 16.7267 123.461 16.8129L123.589 16.8775C124.308 15.6929 125.388 14.4222 126.827 13.0653C128.267 11.7084 129.601 11.0299 130.828 11.0299C131.315 11.0299 131.696 11.1484 131.972 11.3853C132.268 11.6222 132.416 11.9453 132.416 12.3545C132.416 12.5053 132.405 12.6561 132.384 12.8068C132.363 12.9576 132.342 13.0976 132.321 13.2268C132.321 13.356 132.289 13.5283 132.226 13.7437C132.162 13.9376 132.109 14.0991 132.067 14.2283C132.046 14.3575 131.993 14.5406 131.908 14.7775C131.823 15.0144 131.76 15.1975 131.717 15.3267C131.675 15.456 131.59 15.6713 131.463 15.9729C131.358 16.2529 131.273 16.4575 131.209 16.5867C131.167 16.7159 131.072 16.9636 130.924 17.3298C130.797 17.6744 130.701 17.9221 130.638 18.0728C129.558 20.765 129.018 22.2512 129.018 22.5311C129.018 22.8111 129.145 22.9511 129.399 22.9511C129.611 22.9511 129.971 22.7573 130.479 22.3696C131.008 21.9604 131.411 21.605 131.686 21.3035C131.813 21.1958 131.929 21.2173 132.035 21.3681L132.257 21.6266C132.363 21.7342 132.374 21.8527 132.289 21.9819C131.95 22.4342 131.241 23.0157 130.162 23.7265C129.103 24.4372 128.119 24.7926 127.208 24.7926C126.7 24.7926 126.446 24.5772 126.446 24.1465C126.446 23.9742 126.542 23.6188 126.732 23.0804C126.944 22.5204 127.24 21.745 127.621 20.7543C128.002 19.742 128.32 18.8913 128.574 18.202C128.659 17.9867 128.849 17.4913 129.145 16.7159C129.463 15.919 129.706 15.2514 129.876 14.7129C130.066 14.1529 130.162 13.7653 130.162 13.5499C130.162 13.0545 129.897 12.8068 129.368 12.8068C128.754 12.8068 127.812 13.3991 126.542 14.5837C125.293 15.7467 124.308 16.9098 123.589 18.0728C122.869 19.2359 122.234 20.582 121.683 22.1112L120.889 24.2757C120.826 24.4049 120.678 24.4695 120.445 24.4695Z" fill="#029C53"/>
<path d="M161.584 23.8751C161.16 24.168 160.712 24.392 160.237 24.5471C159.763 24.7022 159.213 24.7797 158.586 24.7797C157.536 24.7797 156.672 24.4351 155.995 23.7459C155.335 23.0567 155.004 22.0832 155.004 20.8254V20.6961C153.04 22.0056 151.135 23.0308 149.289 23.7717C147.443 24.4954 145.537 24.8572 143.573 24.8572C141.964 24.8572 140.542 24.6246 139.305 24.1594C138.069 23.6942 137.104 23.0136 136.409 22.1176C135.732 21.2216 135.393 20.1448 135.393 18.8869C135.393 17.4913 135.833 16.2766 136.714 15.2427C137.595 14.1917 138.78 13.3905 140.271 12.8391C141.778 12.2705 143.429 11.9862 145.224 11.9862C148.459 11.9862 151.719 12.7013 155.004 14.1314V8.7814H149.797V6.73961H157.494V20.4118C157.494 21.17 157.646 21.7386 157.951 22.1176C158.273 22.4795 158.671 22.6604 159.145 22.6604C159.755 22.6604 160.347 22.4622 160.923 22.0659L161.584 23.8751ZM143.929 22.6862C145.537 22.6862 147.299 22.3502 149.212 21.6782C151.126 20.989 153.057 20.0328 155.004 18.8094V15.9664C153.616 15.415 152.083 14.9671 150.406 14.6225C148.73 14.2779 147.096 14.1055 145.504 14.1055C144.064 14.1055 142.777 14.3037 141.642 14.7C140.508 15.0791 139.61 15.6218 138.95 16.3283C138.306 17.0347 137.984 17.8445 137.984 18.7577C137.984 19.9638 138.509 20.9201 139.559 21.6266C140.609 22.333 142.066 22.6862 143.929 22.6862Z" fill="#029C53"/>
</svg>
