<svg width="77" height="8" viewBox="0 0 77 8" fill="none" xmlns="http://www.w3.org/2000/svg">
<path fill-rule="evenodd" clip-rule="evenodd" d="M8.19743 4.4276C5.63367 4.90742 2.92564 7.50072 0.0916493 6.14908C1.60667 3.80073 4.86267 3.97764 7.22085 3.16357C9.70714 2.30774 12.0054 0.695889 14.6673 0.606036C15.4731 1.89519 15.0051 2.43422 14.2992 3.64331C15.8351 3.15349 17.3407 2.63707 18.6545 1.85683C19.5462 2.15966 19.8651 2.94301 20.3218 3.60556C22.1388 3.19563 23.7531 2.52055 25.4156 1.90859C26.595 1.86821 26.2722 3.05497 27.1294 3.27342C29.0954 3.11069 32.3394 0.433396 33.5157 3.27975C35.4762 3.07053 37.71 1.80602 38.6969 3.90765C40.8395 3.94963 44.2606 0.549108 45.5046 3.57552C49.0648 1.79581 52.5183 4.12761 56.2461 1.79538C57.533 1.79094 57.2213 3.0707 57.9134 3.5441C63.9013 3.33031 70.152 4.17946 76.0192 3.02304C72.8388 9.14507 59.3584 3.15784 54.491 6.95591C53.0678 7.06986 53.8614 5.41315 52.8223 5.21848C50.8064 5.05438 47.3565 8.60035 46.3895 5.59604C45.263 6.30733 43.6814 6.43644 42.4556 7.04404C41.4608 7.03805 41.3073 6.36641 41.5255 5.39612C38.8197 5.66396 37.1566 7.2955 34.488 7.62514C34.4212 6.88381 33.5132 6.80814 33.9793 5.63875C32.4115 5.92994 30.8921 6.28427 29.6706 7.04133C28.5572 6.9064 28.1983 6.1755 28.0033 5.29261C26.0553 5.67521 24.5695 6.67519 22.8643 7.36217C21.9726 7.05934 21.6536 6.276 21.1956 5.62474C19.311 5.94628 18.2857 7.39161 16.1018 7.32171C15.107 7.31572 14.9521 6.65537 15.1731 5.66249C12.4508 6.06582 10.5313 7.5059 7.7718 7.84743C7.53999 7.45272 7.16913 7.19009 6.75007 6.956C6.58743 5.25214 7.73383 5.29942 8.19743 4.4276Z" fill="#F55B1C"/>
</svg>
