<svg width="41" height="11" viewBox="0 0 41 11" fill="none" xmlns="http://www.w3.org/2000/svg">
<path fill-rule="evenodd" clip-rule="evenodd" d="M13.4197 6.34938C9.57822 6.90978 5.67141 6.2766 1.21997 6.10921C1.38699 4.24605 0.813314 4.71912 0 3.16891C10.4932 2.44839 23.2012 1.24025 33.1861 0.235891C34.4424 0.112166 37.1728 -0.65202 37.5795 1.45859C29.6496 2.27372 17.6024 2.55028 8.78669 4.14416C18.561 3.70748 31.5522 1.51681 40.9997 4.14416C41.0143 5.67253 40.4406 5.26496 40.7528 6.837C33.0917 6.74239 26.2875 7.4993 19.5195 8.30715C24.5737 8.64194 31.2182 7.15724 36.3595 7.57208C35.8294 9.31879 33.433 8.69289 31.9661 8.79478C24.1235 9.32607 14.6905 10.2795 6.83329 11C6.23783 10.3741 5.33737 10.0539 4.87988 9.28968C6.83329 7.40469 10.4206 7.17179 13.4197 6.34938ZM2.67958 4.14416C2.49804 4.20238 2.2003 4.15144 2.19304 4.39161C2.38911 4.33338 2.67958 4.38433 2.67958 4.14416ZM8.53979 4.39161C6.97852 4.10777 8.00243 5.14124 8.53979 4.39161V4.39161ZM30.7462 5.61431C31.7701 5.49058 34.5876 5.88359 34.4061 5.37413C26.4545 5.55608 19.8245 5.86904 13.1728 7.57208C18.8297 6.72056 24.7407 6.12376 30.7462 5.61431ZM15.1262 5.86176C14.8357 5.89815 14.4291 5.81809 14.3927 6.10921C14.6832 6.06554 15.0899 6.1456 15.1262 5.86176ZM12.4466 7.57208C12.2578 7.6303 11.9673 7.57936 11.9601 7.81225C12.1489 7.76131 12.4393 7.81225 12.4466 7.57208Z" fill="#F55B1C"/>
</svg>
