<svg width="31" height="20" viewBox="0 0 31 20" fill="none" xmlns="http://www.w3.org/2000/svg">
<path fill-rule="evenodd" clip-rule="evenodd" d="M13.26 9.46216C17.66 6.16889 26.06 7.87187 30.04 4.04017C28.26 9.23676 22.72 8.26005 17.86 9.12406C14.49 9.72512 12.75 12.9808 10.28 13.8699C9.57001 13.97 9.11001 13.7447 9.20001 12.8556C7.37001 13.6194 7.07001 16.2866 5.14001 16.9252C4.87001 16.4744 4.41001 16.2616 4.33001 15.5729C2.87 16.8 2.95 19.943 0.540001 19.9806C0.420001 19.6675 0.3 19.367 0 19.2919C1.31 14.7214 3.95001 11.8163 6.22001 8.44788C7.55001 5.69306 8.57001 2.5751 10.56 0.646729C11.5 1.39804 11.81 2.9132 13 3.35146C13.27 4.82905 12.44 4.90418 12.19 5.73063C13.21 5.00435 14.03 5.65549 14.61 6.40681C14.55 7.90944 13.51 8.19744 13.26 9.46216ZM4.87001 14.208C6.54001 11.666 9.59001 9.03641 9.74001 5.73063C7.80001 7.93448 5.71001 11.7537 4.87001 14.208Z" fill="#F55B1C"/>
</svg>
