<svg width="375" height="338" viewBox="0 0 375 338" fill="none" xmlns="http://www.w3.org/2000/svg">
<path fill-rule="evenodd" clip-rule="evenodd" d="M37.3548 457.784C52.488 450.073 66.5584 438.606 79.1289 424.077C92.6855 439.746 107.986 451.853 124.484 459.529C111.236 465.693 97.2164 469 82.7096 469C66.8887 469 51.6477 465.067 37.3548 457.784ZM37.3548 11.2163C51.6477 3.93327 66.8887 0 82.7096 0C97.2164 0 111.236 3.30705 124.484 9.47131C107.986 17.1474 92.6855 29.2542 79.1289 44.9229C66.5584 30.3939 52.488 18.9275 37.3548 11.2163ZM273.629 73.1063C246.66 28.0785 208.529 0 166.258 0C151.751 0 137.732 3.30705 124.484 9.47131C185.881 38.0393 230.709 127.975 230.709 234.5C230.709 341.025 185.881 430.961 124.484 459.529C137.732 465.693 151.751 469 166.258 469C208.529 469 246.66 440.921 273.629 395.894C300.598 440.921 338.729 469 381 469C462.738 469 529 364.011 529 234.5C529 104.989 462.738 0 381 0C338.729 0 300.598 28.0785 273.629 73.1063ZM273.629 73.1063C298.809 115.148 314.258 171.965 314.258 234.5C314.258 297.035 298.809 353.852 273.629 395.894C248.449 353.852 233 297.035 233 234.5C233 171.965 248.449 115.148 273.629 73.1063ZM79.1289 44.9229C116.025 87.5679 140 156.598 140 234.5C140 312.402 116.025 381.432 79.1289 424.077C42.2325 381.432 18.2579 312.402 18.2579 234.5C18.2579 156.598 42.2325 87.5679 79.1289 44.9229ZM37.3548 11.2163C23.0618 3.93327 7.82074 0 -8.00008 0C-89.7382 0 -156 104.989 -156 234.5C-156 364.011 -89.7382 469 -8.00008 469C7.82074 469 23.0618 465.067 37.3548 457.784C-22.1967 427.439 -65.2904 338.943 -65.2904 234.5C-65.2904 130.057 -22.1967 41.5611 37.3548 11.2163Z" fill="#029C53"/>
</svg>
