<svg width="210" height="79" viewBox="0 0 210 79" fill="none" xmlns="http://www.w3.org/2000/svg">
<path d="M105.994 0.686679C95.8154 1.58119 85.5186 1.1191 75.3416 2.34458C66.1915 3.44437 57.1737 5.18912 48.5147 7.70692C32.3598 12.4146 15.0976 19.9577 5.54308 31.9595C-2.79207 42.42 0.0966095 54.8287 12.3357 63.1413C19.2921 67.8696 27.6908 70.0574 35.9966 72.4005C46.0724 75.2365 56.4062 76.9844 66.8974 77.8708C89.1073 79.7672 111.981 79.183 133.8 76.4165C153.295 73.9442 173.701 69.9794 190.529 61.6551C203.77 55.0996 216.375 43.224 203.957 30.5195C193.235 19.561 172.489 14.9301 156.932 11.5994C133.542 6.59721 108.932 5.45186 85.2371 6.94909C72.5 7.75391 64.5 7.70692 54.5 15.5C53.5118 16.6635 55.3118 18.0981 56.8201 17.3346C66.5 12.4349 67 12.6429 77.5909 11.6757C95.8457 10.0086 114.543 10.3227 132.92 12.4107C150.433 14.4045 168.265 17.8905 184.552 24.0401C191.242 26.5686 198.433 29.9581 202.288 35.3712C208.656 44.3249 199.826 52.0128 191.605 56.7801C177.285 65.099 159.409 69.2158 142.241 72.1798C123.395 75.4361 104.11 76.5669 84.6954 76.4433C65.737 76.3178 47.5835 73.9233 29.4011 68.7763C12.7769 64.0887 -3.93405 51.6084 4.22658 36.3639C11.703 22.3987 31.2718 13.681 47.8784 8.54708C56.7394 5.80326 65.9912 3.88765 75.4219 2.65309C85.1347 1.3873 96.0839 0.0496901 106.026 1.09325C106.376 1.13149 106.365 0.654783 105.994 0.686679Z" fill="#029C53"/>
</svg>
