<svg width="100" height="10" viewBox="0 0 67 10" fill="none" xmlns="http://www.w3.org/2000/svg">
<path d="M8.33097 3.21733C8.0625 1.27841 6.57102 0.153409 4.63636 0.153409C2.35653 0.153409 0.639205 1.81534 0.639205 4.63636C0.639205 7.45312 2.33523 9.11932 4.63636 9.11932C6.71165 9.11932 8.08807 7.77699 8.33097 6.1108L6.73722 6.10227C6.53693 7.125 5.7017 7.70028 4.65767 7.70028C3.2429 7.70028 2.22869 6.6392 2.22869 4.63636C2.22869 2.66761 3.23438 1.57244 4.66193 1.57244C5.72301 1.57244 6.55398 2.1733 6.73722 3.21733H8.33097ZM9.77876 0.272727V9H11.2958V2.99148H11.3768L13.7887 8.97443H14.9222L17.3342 3.00426H17.4151V9H18.9322V0.272727H16.9975L14.4066 6.59659H14.3043L11.7134 0.272727H9.77876ZM28.4521 4.63636C28.4521 1.81534 26.7305 0.153409 24.4421 0.153409C22.1495 0.153409 20.4322 1.81534 20.4322 4.63636C20.4322 7.45312 22.1495 9.11932 24.4421 9.11932C26.7305 9.11932 28.4521 7.45739 28.4521 4.63636ZM26.8626 4.63636C26.8626 6.62216 25.8654 7.70028 24.4421 7.70028C23.0231 7.70028 22.0217 6.62216 22.0217 4.63636C22.0217 2.65057 23.0231 1.57244 24.4421 1.57244C25.8654 1.57244 26.8626 2.65057 26.8626 4.63636ZM29.1882 1.59801H31.8857V9H33.4538V1.59801H36.1513V0.272727H29.1882V1.59801ZM37.4936 9H39.0746V6.05114H40.745C42.7607 6.05114 43.843 4.84091 43.843 3.16193C43.843 1.49574 42.7734 0.272727 40.7663 0.272727H37.4936V9ZM39.0746 4.75142V1.59375H40.5234C41.7081 1.59375 42.2322 2.23295 42.2322 3.16193C42.2322 4.09091 41.7081 4.75142 40.532 4.75142H39.0746ZM45.2163 9H50.9265V7.67472H46.7972V5.29261H50.5984V3.96733H46.7972V1.59801H50.8924V0.272727H45.2163V9ZM52.1218 1.59801H54.8192V9H56.3874V1.59801H59.0849V0.272727H52.1218V1.59801ZM62.0295 3.64347V0.272727H60.4442V9H63.7127C65.7198 9 66.9173 7.88778 66.9173 6.28125C66.9173 4.67898 65.7198 3.64347 63.7127 3.64347H62.0295ZM62.0295 4.9304H63.7127C64.7695 4.9304 65.3533 5.52699 65.3533 6.2642C65.3533 7.03125 64.7695 7.70455 63.7127 7.70455H62.0295V4.9304Z" fill="#F55B1C"/>
</svg>
