<svg width="100" height="10" viewBox="0 0 60 10" fill="none" xmlns="http://www.w3.org/2000/svg">
<path d="M5.60369 2.67188H7.125C7.09517 1.19744 5.83807 0.153409 3.98011 0.153409C2.14773 0.153409 0.771307 1.18466 0.775568 2.72727C0.775568 3.98011 1.66619 4.70028 3.10227 5.07102L4.09517 5.3267C5.03693 5.56534 5.65909 5.85938 5.66335 6.53693C5.65909 7.28267 4.9517 7.78125 3.92045 7.78125C2.93182 7.78125 2.16477 7.33807 2.10085 6.42188H0.545455C0.609375 8.15625 1.90057 9.1321 3.93324 9.1321C6.02557 9.1321 7.24006 8.08807 7.24432 6.54972C7.24006 5.03693 5.99148 4.34659 4.67898 4.03551L3.8608 3.83097C3.14489 3.66051 2.36932 3.35795 2.37784 2.62926C2.3821 1.97301 2.97017 1.49148 3.95881 1.49148C4.90057 1.49148 5.52273 1.9304 5.60369 2.67188ZM8.65376 9H14.364V7.67472H10.2347V5.29261H14.0359V3.96733H10.2347V1.59801H14.3299V0.272727H8.65376V9ZM15.9428 9H21.6531V7.67472H17.5238V5.29261H21.3249V3.96733H17.5238V1.59801H21.619V0.272727H15.9428V9ZM26.2085 0.272727V9H27.7255V2.99148H27.8065L30.2184 8.97443H31.3519L33.7638 3.00426H33.8448V9H35.3619V0.272727H33.4272L30.8363 6.59659H30.734L28.1431 0.272727H26.2085ZM44.8817 4.63636C44.8817 1.81534 43.1602 0.153409 40.8718 0.153409C38.5792 0.153409 36.8619 1.81534 36.8619 4.63636C36.8619 7.45312 38.5792 9.11932 40.8718 9.11932C43.1602 9.11932 44.8817 7.45739 44.8817 4.63636ZM43.2923 4.63636C43.2923 6.62216 42.2951 7.70028 40.8718 7.70028C39.4528 7.70028 38.4513 6.62216 38.4513 4.63636C38.4513 2.65057 39.4528 1.57244 40.8718 1.57244C42.2951 1.57244 43.2923 2.65057 43.2923 4.63636ZM46.3764 9H47.9574V5.80398H49.5682L51.2812 9H53.0455L51.1577 5.53977C52.1847 5.12642 52.7259 4.24858 52.7259 3.06392C52.7259 1.39773 51.652 0.272727 49.6491 0.272727H46.3764V9ZM47.9574 4.49148V1.59375H49.4062C50.5866 1.59375 51.1151 2.13494 51.1151 3.06392C51.1151 3.9929 50.5866 4.49148 49.4148 4.49148H47.9574ZM54.1811 9H59.8913V7.67472H55.7621V5.29261H59.5632V3.96733H55.7621V1.59801H59.8572V0.272727H54.1811V9Z" fill="#F55B1C"/>
</svg>
