<svg width="100" height="10" viewBox="0 0 47 10" fill="none" xmlns="http://www.w3.org/2000/svg">
<path d="M8.33097 3.21733C8.0625 1.27841 6.57102 0.153409 4.63636 0.153409C2.35653 0.153409 0.639205 1.81534 0.639205 4.63636C0.639205 7.45312 2.33523 9.11932 4.63636 9.11932C6.71165 9.11932 8.08807 7.77699 8.33097 6.1108L6.73722 6.10227C6.53693 7.125 5.7017 7.70028 4.65767 7.70028C3.2429 7.70028 2.22869 6.6392 2.22869 4.63636C2.22869 2.66761 3.23438 1.57244 4.66193 1.57244C5.72301 1.57244 6.55398 2.1733 6.73722 3.21733H8.33097ZM9.77876 0.272727V9H11.2958V2.99148H11.3768L13.7887 8.97443H14.9222L17.3342 3.00426H17.4151V9H18.9322V0.272727H16.9975L14.4066 6.59659H14.3043L11.7134 0.272727H9.77876ZM21.5359 9.09375C22.0387 9.09375 22.4691 8.67614 22.4734 8.15625C22.4691 7.64489 22.0387 7.22727 21.5359 7.22727C21.016 7.22727 20.5941 7.64489 20.5984 8.15625C20.5941 8.67614 21.016 9.09375 21.5359 9.09375ZM24.1342 9H27.6669C29.6655 9 30.6456 7.98153 30.6456 6.62216C30.6456 5.30114 29.7081 4.52557 28.7791 4.47869V4.39347C29.6314 4.19318 30.3047 3.59659 30.3047 2.53551C30.3047 1.2358 29.3672 0.272727 27.4751 0.272727H24.1342V9ZM25.7152 7.67898V5.12216H27.4581C28.4339 5.12216 29.0391 5.71875 29.0391 6.49858C29.0391 7.19318 28.5618 7.67898 27.4155 7.67898H25.7152ZM25.7152 3.98438V1.5767H27.3132C28.2422 1.5767 28.7237 2.06676 28.7237 2.74006C28.7237 3.5071 28.1016 3.98438 27.2791 3.98438H25.7152ZM39.4911 3.21733C39.2227 1.27841 37.7312 0.153409 35.7965 0.153409C33.5167 0.153409 31.7994 1.81534 31.7994 4.63636C31.7994 7.45312 33.4954 9.11932 35.7965 9.11932C37.8718 9.11932 39.2482 7.77699 39.4911 6.1108L37.8974 6.10227C37.6971 7.125 36.8619 7.70028 35.8178 7.70028C34.4031 7.70028 33.3888 6.6392 33.3888 4.63636C33.3888 2.66761 34.3945 1.57244 35.8221 1.57244C36.8832 1.57244 37.7141 2.1733 37.8974 3.21733H39.4911ZM40.9389 9H46.6491V7.67472H42.5199V5.29261H46.321V3.96733H42.5199V1.59801H46.6151V0.272727H40.9389V9Z" fill="#F55B1C"/>
</svg>
