<svg width="163" height="11" viewBox="0 0 163 11" fill="none" xmlns="http://www.w3.org/2000/svg">
<path fill-rule="evenodd" clip-rule="evenodd" d="M152.382 1.53594C150.687 6.75686 164.013 3.20689 162.26 8.46167C160.466 10.8249 156.54 8.55141 152.891 8.50903C102.59 7.38381 55.8826 12.4881 5.76563 9.3297C6.40219 8.0754 4.54066 4.88151 7.8638 5.67249C5.77109 4.37751 -0.948817 6.61787 0.592676 2.06264C0.870954 -0.583689 7.79507 1.89748 10.9449 1.45815C57.5508 1.05611 104.661 1.06102 152.382 1.53594ZM123.162 4.74075C118.234 3.75485 121.931 6.57666 123.162 4.74075V4.74075ZM103.48 4.75729C102.391 4.78248 100.849 4.47895 100.636 5.21586C101.752 5.19243 103.266 5.49421 103.48 4.75729ZM97.8314 5.03913C95.8642 5.29035 91.7435 3.88632 91.2664 5.26323C93.2336 5.01201 97.3544 6.41604 97.8314 5.03913ZM10.6681 5.84922C39.0279 7.01742 65.6583 6.87602 90.3224 5.20373C63.1337 4.91599 34.6143 3.62518 10.6681 5.84922Z" fill="#029C53"/>
</svg>
