<svg width="145" height="18" viewBox="0 0 145 18" fill="none" xmlns="http://www.w3.org/2000/svg">
<path fill-rule="evenodd" clip-rule="evenodd" d="M105.857 7.59628C117.458 3.97345 132.237 11.0851 144.931 6.61786C141.704 11.0057 134.558 12.6841 127.986 12.6023C123.135 12.5461 118.763 10.0359 114.567 9.93485C109.562 9.81561 106.601 13.6393 103.277 10.9692C101.294 10.1153 101.476 7.35958 101.303 4.91538C91.4743 3.80739 83.1101 20.9893 77.4952 7.4846C71.2787 7.07372 70.6984 12.3946 65.3378 12.6044C60.401 12.7893 57.5012 7.16794 53.2869 7.06569C45.8424 6.87333 44.6088 16.2233 37.2024 17.8492C31.9123 16.195 32.0182 9.80273 27.2323 7.70588C20.9876 6.92293 16.6622 9.29901 12.2107 11.4552C8.41277 13.302 4.43387 17.887 0.131016 15.399C-0.573179 11.9501 5.83326 8.68905 10.1762 6.57856C20.5534 1.51739 32.1349 1.11936 36.3807 12.4534C43.1456 6.43065 54.4175 -2.85521 63.287 7.70902C69.7658 7.07949 71.6171 1.15512 79.599 2.26444C81.4826 3.57008 82.226 5.89335 82.7465 8.39581C88.2491 4.44041 103.747 -6.78736 105.857 7.59628Z" fill="#029C53"/>
</svg>
