<svg width="280" height="280" fill="none" xmlns="http://www.w3.org/2000/svg"><circle cx="140" cy="140" r="140" fill="#FBFE67"/><path d="M236.566 199.706c-3.131 2.166-6.449 3.822-9.955 4.969-3.506 1.146-7.576 1.719-12.209 1.719-7.763 0-14.149-2.547-19.158-7.643-4.884-5.096-7.325-12.294-7.325-21.594v-.956c-14.526 9.682-28.613 17.263-42.261 22.741-13.649 5.35-27.736 8.026-42.262 8.026-11.895 0-22.414-1.72-31.555-5.16-9.14-3.44-16.278-8.472-21.412-15.097-5.009-6.624-7.513-14.587-7.513-23.887 0-10.319 3.256-19.301 9.767-26.944 6.511-7.772 15.277-13.696 26.296-17.772 11.144-4.205 23.353-6.307 36.626-6.307 23.917 0 48.021 5.287 72.314 15.861V88.105h-38.505V73.008h56.912V174.1c0 5.606 1.127 9.81 3.381 12.612 2.379 2.676 5.321 4.014 8.827 4.014 4.508 0 8.891-1.466 13.148-4.396l4.884 13.377zm-130.54-8.79c11.896 0 24.918-2.485 39.068-7.453 14.15-5.096 28.425-12.167 42.825-21.212V141.23c-10.268-4.076-21.601-7.389-33.997-9.937-12.397-2.548-24.48-3.822-36.251-3.822-10.643 0-20.16 1.465-28.55 4.396-8.39 2.802-15.026 6.815-19.91 12.039-4.757 5.223-7.136 11.211-7.136 17.963 0 8.918 3.881 15.988 11.645 21.212 7.763 5.223 18.532 7.835 32.306 7.835z" fill="#029C53"/><path d="M114.587 132.446l10.402 45.155h-20.803l10.401-45.155z" fill="#F55B1C"/></svg>