<svg width="280" height="280" viewBox="0 0 280 280" fill="none" xmlns="http://www.w3.org/2000/svg">
<circle cx="140" cy="140" r="140" fill="#029C53"/>
<path d="M241.271 202.411C237.999 204.674 234.532 206.405 230.867 207.603C227.203 208.802 222.95 209.401 218.108 209.401C209.994 209.401 203.32 206.738 198.086 201.412C192.982 196.087 190.43 188.564 190.43 178.845V177.846C175.25 187.965 160.528 195.887 146.263 201.612C131.999 207.204 117.277 210 102.097 210C89.6644 210 78.6718 208.203 69.1186 204.608C59.5655 201.013 52.1063 195.754 46.7408 188.83C41.5062 181.907 38.8889 173.585 38.8889 163.866C38.8889 153.081 42.2914 143.695 49.0964 135.706C55.9013 127.584 65.0619 121.393 76.5779 117.133C88.2249 112.739 100.984 110.542 114.856 110.542C139.851 110.542 165.042 116.068 190.43 127.118V85.7775H150.189V70H209.667V175.649C209.667 181.507 210.845 185.901 213.201 188.83C215.687 191.626 218.762 193.024 222.427 193.024C227.138 193.024 231.718 191.493 236.167 188.431L241.271 202.411ZM104.845 193.224C117.277 193.224 130.887 190.628 145.674 185.435C160.462 180.109 175.381 172.72 190.43 163.267V141.298C179.699 137.038 167.856 133.576 154.9 130.913C141.945 128.25 129.316 126.919 117.015 126.919C105.892 126.919 95.9459 128.45 87.1779 131.512C78.41 134.441 71.4742 138.635 66.3705 144.094C61.3976 149.553 58.9112 155.811 58.9112 162.867C58.9112 172.187 62.968 179.577 71.0816 185.036C79.1952 190.495 90.4496 193.224 104.845 193.224Z" fill="white"/>
<path d="M117.818 133.63L128.688 180.821H106.947L117.818 133.63Z" fill="#F55B1C"/>
</svg>
