<?xml version="1.0" standalone="no"?>
<!DOCTYPE svg PUBLIC "-//W3C//DTD SVG 20010904//EN"
 "http://www.w3.org/TR/2001/REC-SVG-20010904/DTD/svg10.dtd">
<svg version="1.0" xmlns="http://www.w3.org/2000/svg"
 width="700.000000pt" height="700.000000pt" viewBox="0 0 700.000000 700.000000"
 preserveAspectRatio="xMidYMid meet">
<metadata>
Created by potrace 1.14, written by Peter Selinger 2001-2017
</metadata>
<g transform="translate(0.000000,700.000000) scale(0.100000,-0.100000)"
fill="#000000" stroke="none">
<path d="M3730 4985 l0 -195 480 0 480 0 0 -486 c0 -385 -3 -485 -12 -481
-627 268 -1284 403 -1868 384 -296 -10 -500 -44 -752 -127 -367 -121 -633
-304 -811 -561 -131 -188 -185 -389 -174 -643 7 -156 31 -265 86 -382 69 -147
165 -262 306 -367 454 -338 1308 -403 2040 -156 291 99 670 288 1034 515 l146
92 8 -72 c13 -127 46 -257 82 -331 69 -140 205 -256 356 -306 67 -22 90 -24
249 -24 205 1 253 11 405 85 154 75 146 48 73 246 l-62 171 -71 -38 c-182 -98
-363 -91 -467 18 -41 42 -75 129 -87 216 -7 52 -11 507 -11 1358 l0 1279 -715
0 -715 0 0 -195z m-350 -1200 c431 -48 848 -148 1278 -305 l32 -12 0 -262 0
-262 -142 -84 c-179 -106 -542 -289 -713 -360 -570 -234 -1088 -315 -1530
-240 -401 68 -665 266 -731 546 -21 92 -15 254 15 344 59 183 223 355 446 467
190 96 456 164 730 187 95 8 480 -4 615 -19z"/>
<path d="M2857 3675 c-3 -11 -60 -255 -126 -543 -67 -287 -124 -534 -127 -547
l-6 -25 267 0 c249 0 266 1 261 18 -2 9 -59 256 -126 547 -66 292 -125 539
-129 550 l-8 20 -6 -20z"/>
</g>
</svg>
