<?xml version="1.0" standalone="no"?>
<!DOCTYPE svg PUBLIC "-//W3C//DTD SVG 20010904//EN"
 "http://www.w3.org/TR/2001/REC-SVG-20010904/DTD/svg10.dtd">
<svg version="1.0" xmlns="http://www.w3.org/2000/svg"
 width="700.000000pt" height="700.000000pt" viewBox="0 0 700.000000 700.000000"
 preserveAspectRatio="xMidYMid meet">
<metadata>
Created by potrace 1.14, written by Peter Selinger 2001-2017
</metadata>
<g transform="translate(0.000000,700.000000) scale(0.100000,-0.100000)"
fill="#000000" stroke="none">
<path d="M3280 6994 c-19 -2 -84 -9 -145 -14 -410 -40 -846 -169 -1225 -362
-343 -176 -628 -387 -908 -672 -561 -572 -883 -1252 -984 -2081 -7 -56 -12
-217 -12 -365 0 -268 7 -362 45 -588 96 -575 348 -1138 716 -1597 115 -144
339 -373 483 -494 537 -451 1157 -715 1885 -803 135 -16 590 -16 735 1 512 58
1002 222 1426 478 635 383 1136 957 1422 1628 255 599 339 1259 242 1898 -93
610 -340 1176 -726 1662 -116 147 -431 459 -574 569 -523 404 -1101 642 -1750
722 -117 15 -553 27 -630 18z m1960 -3096 c1 -1449 1 -1446 51 -1552 51 -109
150 -169 277 -167 96 1 175 21 264 68 38 20 71 34 73 31 12 -11 124 -331 119
-339 -9 -15 -117 -75 -194 -106 -117 -49 -229 -66 -400 -61 -125 4 -155 8
-218 30 -273 98 -423 315 -449 650 l-8 97 -132 -84 c-379 -241 -817 -460
-1118 -559 -784 -260 -1648 -190 -2128 170 -242 181 -367 407 -399 718 -36
350 87 668 360 927 503 479 1414 635 2442 418 290 -61 682 -185 923 -292 l57
-26 0 520 0 519 -505 0 -505 0 0 195 0 195 745 0 745 0 0 -1352z"/>
<path d="M2775 3823 c-484 -30 -878 -180 -1103 -418 -136 -144 -195 -286 -196
-475 -1 -296 155 -509 471 -645 282 -122 715 -148 1143 -69 454 83 991 299
1517 609 l153 90 0 277 0 276 -77 30 c-574 219 -1390 358 -1908 325z"/>
</g>
</svg>
