<svg width="490" height="392" fill="none" xmlns="http://www.w3.org/2000/svg"><path d="M441.8 133.536L337.373 29.109c-12.501-12.5-32.768-12.5-45.248 0-12.501 12.502-12.501 32.768 0 45.248l-15.082-15.082c-12.502-12.502-32.768-12.502-45.248 0-12.502 12.501-12.502 32.768 0 45.248L216.712 89.44c-12.501-12.501-32.768-12.501-45.248 0-12.501 12.501-12.501 32.768 0 45.248L80.925 44.213c-12.501-12.5-32.768-12.5-45.248 0-12.501 12.502-12.501 32.768 0 45.248L200.435 254.22l-90.454 21.674-.064.043c-5.44 1.216-10.71 4.075-15.082 8.448-12.523 12.523-12.523 32.725 0 45.248 4.373 4.373 9.813 7.381 15.53 8.597l-.085-.042 179.883 41.237c28.629 6.571 58.624-2.069 79.402-22.827l72.214-72.213c41.685-41.643 41.685-109.184.021-150.848z" fill="#FBFE67"/><path d="M191.944 268.171c-4.096 0-8.192-1.558-11.307-4.694L14.685 97.547c-18.709-18.71-18.709-49.174 0-67.883 18.71-18.71 49.174-18.71 67.883 0l150.848 150.848c6.251 6.251 6.251 16.384 0 22.635-6.251 6.25-16.384 6.25-22.635 0L59.933 52.299c-6.25-6.25-16.384-6.25-22.634 0-6.23 6.23-6.23 16.405 0 22.634l165.93 165.931c6.251 6.251 6.251 16.384 0 22.635a15.893 15.893 0 01-11.285 4.672z" fill="#F55B1C"/><path d="M267.357 162.592c-4.096 0-8.192-1.557-11.306-4.693l-60.352-60.352c-6.251-6.251-16.384-6.251-22.635 0-6.251 6.25-6.251 16.405 0 22.656 6.251 6.25 6.251 16.384 0 22.634-6.251 6.251-16.384 6.251-22.635 0-18.73-18.709-18.73-49.194 0-67.904 18.134-18.133 49.75-18.133 67.883 0l60.331 60.352c6.25 6.251 6.25 16.384 0 22.635a15.95 15.95 0 01-11.286 4.672z" fill="#F55B1C"/><path d="M312.605 117.323c-4.096 0-8.192-1.558-11.306-4.694l-45.248-45.248c-6.038-6.037-16.576-6.037-22.635 0-3.029 3.03-4.693 7.04-4.693 11.307s1.664 8.299 4.693 11.285c6.251 6.25 6.251 16.384.021 22.656-6.25 6.23-16.405 6.251-22.656.022-9.066-9.067-14.058-21.12-14.058-33.963 0-12.821 4.992-24.875 14.058-33.941 18.71-18.71 49.174-18.71 67.883 0l45.248 45.248c6.251 6.25 6.251 16.384 0 22.634a15.964 15.964 0 01-11.307 4.694z" fill="#F55B1C"/><path d="M305.096 391.52c-7.851 0-15.787-.917-23.659-2.795l-171.114-40.576a2.445 2.445 0 01-.427-.085c-8.789-1.835-16.917-6.293-23.552-12.885-18.752-18.731-18.752-49.216-.021-67.926 6.165-6.186 13.738-10.474 21.909-12.501.341-.107.661-.192 1.003-.277l79.146-17.92c8.64-1.942 17.195 3.456 19.136 12.053 1.963 8.619-3.456 17.195-12.053 19.136l-78.357 17.728c-.299.085-.598.171-.918.256-2.581.555-5.162 2.048-7.253 4.117-6.251 6.251-6.251 16.406 0 22.656 2.027 2.006 4.459 3.435 6.933 4.096.299.043.598.107.896.192l172.011 40.79c23.552 5.525 47.893-1.323 65.024-18.432l83.221-83.222c13.099-13.077 20.31-30.506 20.31-49.024 0-18.517-7.211-35.946-20.31-49.024L316.36 37.195c-6.059-6.038-16.619-5.995-22.656 0-6.229 6.23-6.229 16.405 0 22.635 6.251 6.25 6.251 16.383 0 22.634-6.251 6.25-16.384 6.25-22.635 0-9.066-9.067-14.058-21.12-14.058-33.941 0-12.822 4.992-24.875 14.058-33.942 18.112-18.112 49.771-18.154 67.904 0l120.662 120.683c19.136 19.115 29.696 44.587 29.696 71.637 0 27.051-10.539 52.523-29.696 71.638l-83.222 83.221c-19.264 19.349-44.821 29.76-71.317 29.76z" fill="#F55B1C"/></svg>